<?xml version="1.0" encoding="utf-8"?>
<!-- Generator: Adobe Illustrator 19.1.0, SVG Export Plug-In . SVG Version: 6.00 Build 0)  -->
<svg version="1.1" id="Capa_1" xmlns="http://www.w3.org/2000/svg" xmlns:xlink="http://www.w3.org/1999/xlink" x="0px" y="0px"
	 viewBox="-68 191.9 459 459" style="enable-background:new -68 191.9 459 459;" xml:space="preserve">
<style type="text/css">
	.st0{fill:#E23737;}
</style>
<g>
	<g id="palette">
		<path class="st0" d="M161.5,191.9C34,191.9-68,293.9-68,421.4S34,650.9,161.5,650.9c20.4,0,38.3-17.8,38.3-38.3
			c0-10.2-2.5-17.8-10.2-25.5c-5.1-7.7-10.2-15.3-10.2-25.5c0-20.4,17.9-38.3,38.3-38.3h45.9c71.4,0,127.5-56.1,127.5-127.5
			C391,283.7,289,191.9,161.5,191.9z M21.2,421.4c-20.4,0-38.3-17.8-38.3-38.3c0-20.4,17.8-38.3,38.3-38.3s38.3,17.9,38.3,38.3
			C59.5,403.6,41.7,421.4,21.2,421.4z M97.7,319.4c-20.4,0-38.3-17.9-38.3-38.3s17.8-38.3,38.3-38.3s38.3,17.9,38.3,38.3
			S118.2,319.4,97.7,319.4z M225.2,319.4c-20.4,0-38.3-17.9-38.3-38.3s17.9-38.3,38.3-38.3s38.3,17.9,38.3,38.3
			S245.6,319.4,225.2,319.4z M301.7,421.4c-20.4,0-38.3-17.8-38.3-38.3c0-20.4,17.9-38.3,38.3-38.3s38.3,17.9,38.3,38.3
			C340,403.6,322.1,421.4,301.7,421.4z"/>
	</g>
</g>
</svg>
