<?xml version="1.0" encoding="utf-8"?>
<!-- Generator: Adobe Illustrator 19.1.0, SVG Export Plug-In . SVG Version: 6.00 Build 0)  -->
<svg version="1.1" id="Capa_1" xmlns="http://www.w3.org/2000/svg" xmlns:xlink="http://www.w3.org/1999/xlink" x="0px" y="0px"
	 viewBox="-46 169.2 502.7 502.7" style="enable-background:new -46 169.2 502.7 502.7;" xml:space="preserve">
<style type="text/css">
	.st0{fill:#E23737;}
</style>
<g>
	<g>
		<g>
			<polygon class="st0" points="37.2,403.3 56.5,475.3 85,475.3 121,363.4 91.7,363.4 70.4,436.8 51.6,363.4 23,363.4 3.7,436.8 
				-17.2,363.4 -46,363.4 -10.6,475.3 18.2,475.3 			"/>
			<polygon class="st0" points="219.5,363.4 190.9,363.4 171.6,436.8 150.5,363.4 121.8,363.4 157.2,475.3 186.1,475.3 205,403.3 
				224.4,475.3 252.8,475.3 288.8,363.4 259.6,363.4 238.2,436.8 			"/>
			<polygon class="st0" points="427.4,363.4 406,436.8 387.3,363.4 358.7,363.4 339.3,436.8 318.4,363.4 289.6,363.4 325.1,475.3 
				353.9,475.3 372.8,403.3 392.1,475.3 420.7,475.3 456.7,363.4 			"/>
			<path class="st0" d="M205.3,205c-86.6,0-161,51.2-195.3,124.8h390.6C366.3,256.2,291.9,205,205.3,205z"/>
			<path class="st0" d="M205.3,636.1c86.6,0,161-51.1,195.3-124.8H10.1C44.3,585,118.8,636.1,205.3,636.1z"/>
		</g>
	</g>
</g>
</svg>
