<?xml version="1.0" encoding="utf-8"?>
<!-- Generator: Adobe Illustrator 19.1.0, SVG Export Plug-In . SVG Version: 6.00 Build 0)  -->
<svg version="1.1" id="Capa_1" xmlns="http://www.w3.org/2000/svg" xmlns:xlink="http://www.w3.org/1999/xlink" x="0px" y="0px"
	 viewBox="8 114.9 612 612" style="enable-background:new 8 114.9 612 612;" xml:space="preserve">
<style type="text/css">
	.st0{fill:#E23737;}
</style>
<g>
	<g>
		<path class="st0" d="M314,726.8c-28.2,0-55.3-3.7-81.4-11s-50.5-17.6-73.1-30.9c-22.6-13.3-43.2-29.2-61.8-47.7
			C79.1,618.6,63.2,598,50,575.4c-13.3-22.6-23.6-47-30.9-73.1c-7.3-26.1-11-53.2-11-81.4s3.7-55.3,11-81.4S36.6,289,50,266.4
			s29.2-43.2,47.7-61.8c18.6-18.6,39.2-34.5,61.8-47.7c22.6-13.3,47-23.6,73.1-30.9c26.1-7.3,53.2-11,81.4-11
			c42,0,81.7,8.1,119,24.2s69.8,37.9,97.3,65.5c27.5,27.5,49.4,60,65.5,97.3c16.1,37.3,24.2,76.8,24.2,118.8
			c0,28.2-3.7,55.3-11,81.4c-7.3,26.1-17.6,50.5-30.9,73.1c-13.3,22.6-29.2,43.2-47.7,61.8c-18.6,18.6-39.2,34.5-61.8,47.7
			c-22.6,13.3-47,23.6-73.1,30.9C369.3,723.1,342.2,726.8,314,726.8z M461.5,294.7H171.4c-2.9,0-5.3,0.9-7.3,2.8
			c-2,1.8-3.1,4.4-3.1,7.6v32.4c0,1.6,0.6,2.4,1.8,2.4l152.4,86.9l1.2,0.6c0.8,0,1.4-0.2,1.8-0.6l147.5-86.9
			c0.8-0.4,1.4-0.6,1.8-0.6c0.4,0,1-0.2,1.8-0.6c1.6,0,2.4-0.8,2.4-2.4v-31.2c0-3.3-1-5.8-3.1-7.6S464.3,294.7,461.5,294.7z
			 M253.4,425.1c0.4-0.4,0.6-1,0.6-1.8c0-1.2-0.4-1.8-1.2-1.8l-87.5-50.2c-1.2-0.4-2.2-0.4-3.1,0c-0.8,0-1.2,0.6-1.2,1.8v131.6
			c0,1.2,0.6,2,1.8,2.4h1.2c0.8,0,1.2-0.2,1.2-0.6L253.4,425.1z M359.9,434.9c-0.4-1.2-1.4-1.4-3.1-0.6L323,453.9
			c-4.1,2.4-8.4,2.4-12.9,0l-29.4-16.5c-1.2-0.8-2.2-0.8-3.1,0l-112,104c-0.4,0.4-0.6,1.2-0.6,2.4c0,0.4,0.4,1,1.2,1.8
			c2.4,0.8,4.1,1.2,4.9,1.2h287c0.8,0,1.6-0.4,2.4-1.2c0-1.6-0.2-2.6-0.6-3.1L359.9,434.9z M470.1,368.8h-2.4l-83.2,49.6
			c-0.8,0-1.2,0.6-1.2,1.8c-0.4,0.4-0.2,1,0.6,1.8l83.2,90c0.8,0.8,1.4,1.2,1.8,1.2h1.2c1.2-1.2,1.8-2,1.8-2.4V371.2
			C471.9,370.4,471.3,369.6,470.1,368.8z"/>
	</g>
</g>
</svg>
