<?xml version="1.0" encoding="utf-8"?>
<!-- Generator: Adobe Illustrator 19.1.0, SVG Export Plug-In . SVG Version: 6.00 Build 0)  -->
<svg version="1.1" id="Capa_1" xmlns="http://www.w3.org/2000/svg" xmlns:xlink="http://www.w3.org/1999/xlink" x="0px" y="0px"
	 viewBox="-290 413.9 15 15" style="enable-background:new -290 413.9 15 15;" xml:space="preserve">
<style type="text/css">
	.st0{fill:#E23737;}
</style>
<g>
	<path class="st0" d="M-275,420.9c-0.2-3.7-3.2-6.7-7-7l0,0h-0.5h-0.5l0,0c-3.7,0.2-6.7,3.2-7,7l0,0v0.5v0.5l0,0
		c0.2,3.7,3.2,6.7,7,7l0,0h0.5h0.5l0,0c3.7-0.2,6.7-3.2,7-7l0,0v-0.5V420.9L-275,420.9z M-285.3,415.5c-0.5,0.6-0.9,1.4-1.2,2.4
		h-1.5C-287.3,416.9-286.4,416.1-285.3,415.5z M-288.5,418.9h1.8c-0.1,0.6-0.2,1.3-0.2,2h-2C-288.9,420.2-288.8,419.5-288.5,418.9z
		 M-289,421.9h2c0,0.7,0.1,1.4,0.2,2h-1.8C-288.8,423.3-288.9,422.6-289,421.9z M-288,424.9h1.5c0.3,0.9,0.7,1.7,1.2,2.4
		C-286.4,426.7-287.3,425.9-288,424.9z M-283,427.8c-1-0.3-1.9-1.4-2.5-2.9h2.5V427.8z M-283,423.9h-2.7c-0.1-0.6-0.2-1.3-0.3-2h3
		V423.9z M-283,420.9h-3c0-0.7,0.1-1.4,0.3-2h2.7V420.9z M-283,417.9h-2.5c0.5-1.6,1.4-2.7,2.5-2.9V417.9z M-277,417.9h-1.5
		c-0.3-0.9-0.7-1.7-1.2-2.4C-278.6,416.1-277.7,416.9-277,417.9z M-282,415c1,0.3,1.9,1.4,2.5,2.9h-2.5V415z M-282,418.9h2.7
		c0.1,0.6,0.2,1.3,0.3,2h-3V418.9z M-282,421.9h3c0,0.7-0.1,1.4-0.3,2h-2.7V421.9z M-282,427.8v-2.9h2.5
		C-280.1,426.5-281,427.6-282,427.8z M-279.7,427.3c0.5-0.6,0.9-1.4,1.2-2.4h1.5C-277.7,425.9-278.6,426.7-279.7,427.3z
		 M-276.5,423.9h-1.8c0.1-0.6,0.2-1.3,0.2-2h2C-276.1,422.6-276.2,423.3-276.5,423.9z M-278,420.9c0-0.7-0.1-1.4-0.2-2h1.8
		c0.3,0.6,0.4,1.3,0.5,2H-278z"/>
</g>
</svg>
